<?xml version="1.0" encoding="UTF-8"?> <svg xmlns="http://www.w3.org/2000/svg" viewBox="0 0 289.45 313.28"> <g id="Слой_2" data-name="Слой 2"> <g id="Слой_1-2" data-name="Слой 1"> <path d="M62.21,311.1v-129c-3.61,3.37-6.77,6.13-9.71,9.11A128.44,128.44,0,0,0,19,250a139.23,139.23,0,0,0-4.27,33.87c-.09,8.75,0,17.5,0,26.25v3.07c-4.64,0-9.1.06-13.56-.09-.4,0-1.11-1.27-1.11-2,0-10.33,0-20.66.07-31a137.23,137.23,0,0,1,10.23-51.11,145.1,145.1,0,0,1,88.08-83.41c5.57-1.91,11.39-3.1,17.1-4.62l2.32-.64c-1.19-.56-2-.94-2.78-1.3C86.37,126.32,68.68,95.71,72.32,65.19,76.24,32.39,100.2,6.66,132,1.1a72.61,72.61,0,0,1,83.24,54.55c.52,2.15,1.3,2.9,3.62,2.85,8.66-.17,17.32-.06,26.2-.06V73.18H217.57c-1.85,31.68-17.08,54-45.83,67.24,4.09,1,8,2,11.93,3.07a142.64,142.64,0,0,1,67.12,41c17,18.26,28.27,39.62,34.42,63.69a144.9,144.9,0,0,1,4.2,35.15c0,9.16,0,18.33,0,27.49,0,1.83-.49,2.5-2.38,2.44-4.06-.13-8.12,0-12.45,0V310c-.1-11-.07-22-.32-33a122.19,122.19,0,0,0-9.81-44.37C256,212.29,243,195.38,225.94,181.48c-.62-.51-1.28-.95-2.29-1.69V311h-15v-3.1q0-67.76,0-135.5c0-1.88-.45-3-2.19-3.92a130.8,130.8,0,0,0-91.33-12.26,126.48,126.48,0,0,0-36.51,14.56c-1.7,1-1.62,2.27-1.62,3.75V311.1ZM86.66,73.4c1.22,21.49,10.19,38.37,28.71,49.05,20.67,11.93,41.7,11.22,61.62-1.92,16.62-11,24.66-27.1,25.58-47.13ZM88.8,58.34H200.42C196.64,39.23,177.1,16.11,147,14.92,116.27,13.71,93.78,35.93,88.8,58.34Z"></path> </g> </g> </svg> 