<?xml version="1.0" encoding="UTF-8"?> <svg xmlns="http://www.w3.org/2000/svg" viewBox="0 0 370.92 371.18"> <g id="Слой_2" data-name="Слой 2"> <g id="Слой_1-2" data-name="Слой 1"> <path d="M201.27,371.18c-39.84-.85-75.52-13.22-106.4-38.36-30.63-25-50.22-57-58.66-95.66-1.47-6.73-2.15-13.63-3.16-20.46-.2-1.34-.22-2.51-2.1-2.76-14.53-1.9-26-13.14-27.62-28.86C2.17,173.4.69,161.73.08,150-.69,135.48,4.33,122.73,14,111.83c1.81-2.06,3.78-4,5.73-5.93Q64,61.61,108.24,17.34c7.5-7.5,16.07-13.4,26.55-15.6A67.17,67.17,0,0,1,152.35.08c11.79.73,23.56,2,35.26,3.71,13.82,2,24,12.48,26.31,26.41.32,1.9.88,2.59,2.86,2.77a169.43,169.43,0,0,1,116,61.6,166.26,166.26,0,0,1,35.62,78.5c6.09,36.5,1,71.59-15.71,104.67a166.37,166.37,0,0,1-58.88,65.63,164.41,164.41,0,0,1-68,25.44C217.71,369.91,209.47,370.41,201.27,371.18ZM145.7,117.68c-7.73,7.74-15.52,15.49-23.23,23.33a3,3,0,0,0-.47,2.37c1.3,6.26-3.5,10.94-9.67,9.45a3.13,3.13,0,0,0-2.47.78Q92.12,171.22,74.5,189a4.4,4.4,0,0,0-1.3,2.75c0,8.07-.15,16.16.51,24.19,1.19,14.5,5.44,28.26,11.71,41.35a126,126,0,0,0,44.5,51.27c27.5,18.34,57.8,25.27,90.45,20.44,28.27-4.19,52.77-16.41,72.89-36.95,22-22.48,34.39-49.52,36.72-80.83,2.23-29.81-4.75-57.63-22-82.1C279.83,89.3,241,70.69,192.29,73.15a6.14,6.14,0,0,0-3.63,1.67C178.44,84.87,168.32,95,158.17,105.13c-.51.51-1,1.08-1.38,1.57,2.06,4.27,1.88,7.42-.48,9.88C153.52,119.48,150.43,119.83,145.7,117.68ZM15.3,151.33C16.38,162,17.47,173,18.64,184a16.61,16.61,0,0,0,12.21,14.29c7.21,2,12.92-.47,18-5.59q72-72.08,144-144c.59-.59,1.2-1.16,1.74-1.79,4.4-5.19,5.8-11,3.31-17.45a15.88,15.88,0,0,0-13.84-10.7c-9.68-1.09-19.39-2-29.06-3.14-13.53-1.66-25.32,2-34.95,11.63Q73.69,73.46,27.51,119.88C18.93,128.48,14.82,138.82,15.3,151.33Zm42,54.8c-1.86,1.33-3.33,2.85-5.11,3.54-3.31,1.28-4.1,3.11-3.73,6.73a152.15,152.15,0,0,0,12.65,47.84c15.6,34.27,40.37,59.83,74.37,76.11,30.6,14.65,62.72,18.57,95.95,11.91,36.28-7.27,66.35-25.2,89.7-54,21.94-27.07,33.25-58.16,34.3-92.94A154.61,154.61,0,0,0,299.62,83a150.46,150.46,0,0,0-48.36-27,146.77,146.77,0,0,0-37.32-7.66c-.75-.05-1.91,0-2.22.47-1.85,2.72-3.51,5.56-5.28,8.46,41.34,2.43,76.45,18.21,103.71,49.52S349.08,175,345,216.4C338.06,286,281.68,342.08,208.25,345.65c-37.84,1.84-71.58-9.87-100.3-34.49C76,283.79,59.56,248.51,57.28,206.13Z"></path> <path d="M201.57,278.94a77.34,77.34,0,0,1-77.22-81.47c2.27-41.53,37-75.9,82.39-73.08,40.54,2.53,74.3,36.56,72.07,81.38C276.72,247.63,242,279,201.57,278.94Zm.69-15.4c33.8-.37,61.56-28,61.31-62.16a62,62,0,1,0-61.31,62.16Z"></path> <path d="M299.3,242.84a7.71,7.71,0,0,1-.37-15.42,8,8,0,0,1,8.15,7.74A7.6,7.6,0,0,1,299.3,242.84Z"></path> <path d="M198.42,105.79a7.69,7.69,0,0,1-7.79-7.41,7.61,7.61,0,0,1,7.26-7.95,7.69,7.69,0,1,1,.53,15.36Z"></path> <path d="M135.4,288.79a7.69,7.69,0,1,1,7.7-7.56A7.71,7.71,0,0,1,135.4,288.79Z"></path> <path d="M292.58,140.09a7.82,7.82,0,0,1-7.81,7.76,7.7,7.7,0,1,1,7.81-7.76Z"></path> <path d="M105.91,249a7.63,7.63,0,1,1-.17-15.25,7.63,7.63,0,1,1,.17,15.25Z"></path> <path d="M98.91,200a7.77,7.77,0,0,1-7.79-8,7.7,7.7,0,0,1,15.39.57A7.73,7.73,0,0,1,98.91,200Z"></path> <path d="M179.78,310.36a7.62,7.62,0,1,1,.43-15.23,7.47,7.47,0,0,1,7.37,7.82A7.58,7.58,0,0,1,179.78,310.36Z"></path> <path d="M304,178.25a7.83,7.83,0,0,1,7.63,7.39,7.71,7.71,0,1,1-15.42.14A7.88,7.88,0,0,1,304,178.25Z"></path> <path d="M229.21,308.87a7.5,7.5,0,0,1-7.67-7.53,7.65,7.65,0,1,1,15.29-.07A7.53,7.53,0,0,1,229.21,308.87Z"></path> <path d="M280.13,276.58a7.54,7.54,0,0,1-7.08,7.85,7.65,7.65,0,0,1-8.11-7.38,7.6,7.6,0,0,1,15.19-.47Z"></path> <path d="M254.27,108.62a7.54,7.54,0,1,1-7.39-7.78A7.5,7.5,0,0,1,254.27,108.62Z"></path> <path d="M136.9,37.63A19.9,19.9,0,0,1,157,57.27C157.2,68.09,148,77.33,137,77.35a19.94,19.94,0,0,1-19.89-19.83A19.71,19.71,0,0,1,136.9,37.63Zm0,24.24a4.36,4.36,0,0,0,4.58-4.48A4.72,4.72,0,0,0,137,53a4.64,4.64,0,0,0-4.45,4.47A4.35,4.35,0,0,0,136.91,61.87Z"></path> <path d="M57.37,117.13c10.85-.11,20.13,8.75,20,19.67a19.93,19.93,0,1,1-20-19.67Zm.2,24.23a4.38,4.38,0,0,0,4.41-4.7,4.62,4.62,0,0,0-4.45-4.22,4.49,4.49,0,0,0-4.48,4.69A4.14,4.14,0,0,0,57.57,141.36Z"></path> <path d="M201.66,254.49c-29.72.3-53.84-24.62-53-54.82.74-28,25-51.2,52.76-51.17a53.55,53.55,0,0,1,53.22,55.28C253.77,231.35,229.31,255,201.66,254.49Zm37.46-53.24c0-20.62-17-37.33-38-37.36-20.43,0-37.19,17.19-37.11,38.2a37.28,37.28,0,0,0,37,37C222.48,239.45,239.1,222.58,239.12,201.25Z"></path> </g> </g> </svg> 