<?xml version="1.0" encoding="UTF-8"?> <svg xmlns="http://www.w3.org/2000/svg" viewBox="0 0 326.49 326.48"> <g id="Слой_2" data-name="Слой 2"> <g id="Слой_1-2" data-name="Слой 1"> <path d="M245,275.05c0,3.81,0,7.62,0,11.42,0,7,.11,14-.22,21-.51,10.5-8.93,19.07-21.35,19-14.08-.05-28.16,0-42.25,0q-79.5,0-159,0c-7.12,0-13.27-2.09-17.8-7.87A20.84,20.84,0,0,1,0,305.34V49.09C0,38.26,5.24,30.94,15.13,27.88c.16-.05.32-.19.47-.18,4.81.46,5.94-2.69,7.41-6.5C28.47,7.1,41.84-.91,57.3.08,71.18,1,83.24,11,87.18,25c.18.63.39,1.25.65,2.08H223.05c8.95,0,16,3.59,19.72,11.86a27,27,0,0,1,2.08,10.88q.19,81.38.05,162.75a6.11,6.11,0,0,0,2,4.78q36.31,36.18,72.52,72.44c6.39,6.38,8.71,13.81,5.93,22.58-4.23,13.32-21.42,18.47-32.28,9.66a45.1,45.1,0,0,1-3.71-3.34q-21-20.93-41.9-41.89c-.64-.65-1.18-1.4-1.76-2.1Zm-34-34.63v3.43c0,15.84,0,31.67,0,47.5,0,5.06-2.63,7.73-7.64,7.94-.58,0-1.17,0-1.75,0H43.28c-.67,0-1.34,0-2,0-4.66-.17-7.25-2.75-7.26-7.41q0-71,0-142c0-3.16,1.71-5.8,4.39-6.59a15.12,15.12,0,0,1,4.2-.44c15.84,0,31.67,0,47.5-.09a6.16,6.16,0,0,0,3.86-1.6c5.46-5.26,10.71-10.74,16.14-16a9.58,9.58,0,0,1,4.16-2.5c3.9-.95,6.92,1.29,8.2,5.76,3.36,11.67,6.67,23.35,10,35a18.09,18.09,0,0,0,.76,1.88c6-4.51,11.87-8.76,17.56-13.24,3.36-2.64,6.55-2.91,10.37-1,11.1,5.71,22.3,11.22,33.46,16.8.76.38,1.55.71,2.51,1.15V67.91h-95V54.33H202c.91,0,1.83,0,2.74.09a6.38,6.38,0,0,1,5.91,5.22,20.19,20.19,0,0,1,.3,4q0,57.62,0,115.24a5.26,5.26,0,0,0,1.67,4.17c5.72,5.59,11.35,11.27,17,16.91a20.83,20.83,0,0,0,1.66,1.36c0-1,.1-1.67.1-2.31q0-75,0-150c0-5.84-2.54-8.35-8.4-8.35H91.19c-.81,0-1.63.07-2.74.13v3q0,34.12,0,68.25a59,59,0,0,1-.34,6.23c-1.29,11.94-13.64,20.21-25.24,16.92-9.66-2.75-15.24-10.3-15.26-20.85,0-19.08,0-38.17,0-57.25v-2.6H61.16v3.13q0,27.87,0,55.74a18.53,18.53,0,0,0,.27,3.73,6.41,6.41,0,0,0,6.42,5.21c4.45.06,7-2.85,7-8.15q0-35.49,0-71c0-.81-.1-1.61-.16-2.4-.59-.07-.92-.14-1.25-.14-17.49,0-35,0-52.49,0-4.83,0-7.41,2.91-7.41,8.07q0,128,0,256c0,5.57,2.68,8.26,8.3,8.26q100.62,0,201.24,0c5.56,0,8.25-2.73,8.26-8.33,0-13.92,0-27.83-.06-41.75a5.63,5.63,0,0,0-1.41-3.46c-2.51-2.78-5.23-5.37-7.89-8C218.47,247.91,214.94,244.41,210.93,240.42Zm-13.76,45.09c.06-.64.14-1,.14-1.45,0-18.58,0-37.16-.06-55.74a5.11,5.11,0,0,0-1.53-3.16c-7.44-7.52-15-14.92-22.43-22.46a22.48,22.48,0,0,1-3.91-5.42c-4.78-9.32-9.42-18.72-14.12-28.1-.39-.78-.83-1.53-1.33-2.44-6.78,5.08-13.3,10-19.84,14.85-4.91,3.65-9.9,2-11.62-3.84s-3.3-11.51-5-17.27c-1.71-6-3.42-11.91-5.27-18.37-3.68,3.7-7.13,6.94-10.29,10.44a11.52,11.52,0,0,1-9.47,4c-13.91-.16-27.82-.06-41.74-.06H47.69v129ZM285.45,276l-89.21-89.31-9.6,9.55L276,285.58Zm0,19.72c5.3,5.28,10.32,10.39,15.47,15.37,2.92,2.82,7.13,2.62,10.11-.23a7.12,7.12,0,0,0,.23-9.93c-5-5.24-10.17-10.32-15.33-15.54-.67.62-1.17,1-1.63,1.5C291.41,289.79,288.53,292.67,285.45,295.75ZM73.36,27c-2.57-8.31-10.73-13.76-19.88-13.44-8.27.28-16.31,6.26-17.95,13.44Zm111,151-12-6-.35.39,6,12Z"></path> <path d="M61.31,271.87V258.65h40.58v13.22Z"></path> <path d="M61.17,231.27H88.26v13.37c-.9.06-1.7.15-2.51.15-7.33,0-14.66-.07-22,.05-2.11,0-2.73-.65-2.64-2.7C61.28,238.59,61.17,235,61.17,231.27Z"></path> </g> </g> </svg> 