<?xml version="1.0" encoding="UTF-8"?> <svg xmlns="http://www.w3.org/2000/svg" viewBox="0 0 270.61 311.53"> <g id="Слой_2" data-name="Слой 2"> <g id="Слой_1-2" data-name="Слой 1"> <path d="M270.56,98c0,18-.14,36,0,54,.16,15.94-3.46,31.06-9.29,45.72-11.3,28.43-29.63,51.7-52.78,71.39-20.29,17.27-43.12,30.37-67.34,41.19a13.65,13.65,0,0,1-11.6-.2c-21.77-9.7-42.43-21.3-61.18-36.09C41.88,253.12,21,227.73,8.63,196A118.72,118.72,0,0,1,0,151.69C.23,113.86.08,76,.08,38.2c0-7.94,2.56-11.63,9.8-14.83C29.29,14.78,49.77,10,70.57,6.42A452.43,452.43,0,0,1,129.4.11a214.41,214.41,0,0,1,31.42,1.46c16.71,1.85,33.37,4.17,50,6.85A215,215,0,0,1,250,19.06c4,1.47,8,3.11,12,4.84,5.78,2.53,8.59,7,8.57,13.39Q270.53,67.66,270.56,98Zm-14.9,2.23c0-20,0-40,.05-60,0-2.11-.52-3.19-2.56-4.08a195,195,0,0,0-45.7-13.28c-16.81-2.83-33.76-4.89-50.7-6.9a156.3,156.3,0,0,0-23.18-1.2,430.74,430.74,0,0,0-65.24,7.07C51,25.09,33.8,29.15,17.49,36.22c-2,.89-2.57,2-2.56,4.07q.09,57,0,114a91.48,91.48,0,0,0,4.71,28.2C28.74,211.1,45.72,234.53,68,254.34c19.72,17.55,42.14,30.84,66.2,41.47a4.17,4.17,0,0,0,3,0c22-9.78,42.68-21.87,61.15-37.43,21.75-18.32,39.09-40,49.51-66.7,4.84-12.39,8-25.17,7.88-38.66C255.52,135.43,255.66,117.85,255.66,100.27Z"></path> <path d="M116.79,189.87l-33.62-33L93.5,146.59l23.17,23.09,60.2-60.21,10.2,10.13Z"></path> </g> </g> </svg> 